<?xml version="1.0" encoding="UTF-8"?>
<svg width="400" height="300" viewBox="0 0 400 300" fill="none" xmlns="http://www.w3.org/2000/svg">
    <!-- Background pattern -->
    <path d="M0 0h400v300H0z" fill="#FFF7ED"/>
    <circle cx="350" cy="50" r="100" fill="#FFEDD5" opacity="0.5"/>
    <circle cx="50" cy="250" r="80" fill="#FED7AA" opacity="0.5"/>
    
    <!-- Decorative food elements -->
    <!-- Plate -->
    <circle cx="200" cy="150" r="80" fill="#FDBA74"/>
    <circle cx="200" cy="150" r="70" fill="#FFF7ED"/>
    
    <!-- Spoon and Fork -->
    <path d="M140 90c0 0-15-20-15-40s15-40 15-40" stroke="#C2410C" stroke-width="4" stroke-linecap="round"/>
    <path d="M260 90c0 0 15-20 15-40s-15-40-15-40" stroke="#C2410C" stroke-width="4" stroke-linecap="round"/>
    
    <!-- Food items -->
    <circle cx="180" cy="140" r="15" fill="#EA580C"/>
    <circle cx="220" cy="140" r="15" fill="#EA580C"/>
    <path d="M170 170c10 10 50 10 60 0" stroke="#EA580C" stroke-width="4" stroke-linecap="round"/>
    
    <!-- Decorative patterns -->
    <circle cx="100" cy="50" r="5" fill="#FB923C"/>
    <circle cx="300" cy="250" r="5" fill="#FB923C"/>
    <circle cx="350" cy="150" r="5" fill="#FB923C"/>
    <circle cx="50" cy="150" r="5" fill="#FB923C"/>
    
    <!-- Small decorative elements -->
    <path d="M320 80l10 10m-10 0l10-10" stroke="#EA580C" stroke-width="2" stroke-linecap="round"/>
    <path d="M80 220l10 10m-10 0l10-10" stroke="#EA580C" stroke-width="2" stroke-linecap="round"/>
    <path d="M150 40l10 10m-10 0l10-10" stroke="#EA580C" stroke-width="2" stroke-linecap="round"/>
</svg> 